<svg width="1272.839990234375px" height="250.439990234375px" xmlns="http://www.w3.org/2000/svg" viewBox="-386.41999511718745 -50.219995117187494 1272.839990234375 250.439990234375" style="background: rgba(0, 0, 0, 0) none repeat scroll 0% 0%;" preserveAspectRatio="xMidYMid"><defs><filter id="editing-extrusion" x="-100%" y="-100%" width="300%" height="300%"><feFlood result="color1" flood-color="#444444"></feFlood><feConvolveMatrix order="1,1" divisor="1" kernelMatrix="1" in="SourceAlpha" result="extrude"></feConvolveMatrix><feComposite in="color1" in2="extrude" result="comp-extrude" operator="in"></feComposite><feOffset dx="0.5" dy="0.5" in="comp-extrude" result="offset-extrude"></feOffset><feMerge><feMergeNode in="offset-extrude"></feMergeNode><feMergeNode in="SourceGraphic"></feMergeNode></feMerge></filter></defs><g filter="url(#editing-extrusion)"><g transform="translate(-210.20501041412354, 138.22500038146973)"><path d="M49.20 0L2.46 0L2.46-20.17L8.61-20.17L8.61-75.52L2.46-75.52L2.46-95.69L49.20-95.69L49.20-75.52L43.05-75.52L43.05-20.17L49.20-20.17L49.20 0ZM172.69-20.17L178.10-20.17L178.10 0L139.24 0L139.24-20.17L144.40-20.17L144.40-40.34L144.40-40.34Q144.40-44.40 142.68-46.31L142.68-46.31L142.68-46.31Q140.96-48.22 137.51-48.22L137.51-48.22L137.51-48.22Q130.13-48.22 130.13-40.34L130.13-40.34L130.13-20.17L135.30-20.17L135.30 0L96.68 0L96.68-20.17L101.84-20.17L101.84-40.34L101.84-40.34Q101.84-44.40 100.12-46.31L100.12-46.31L100.12-46.31Q98.40-48.22 94.96-48.22L94.96-48.22L94.96-48.22Q87.58-48.22 87.58-40.34L87.58-40.34L87.58-20.17L92.74-20.17L92.74 0L53.87 0L53.87-20.17L59.29-20.17L59.29-48.22L53.87-48.22L53.87-68.39L87.58-68.39L87.58-58.79L87.58-58.79Q96.43-70.11 109.72-70.11L109.72-70.11L109.72-70.11Q117.22-70.11 121.95-66.60L121.95-66.60L121.95-66.60Q126.69-63.10 128.66-56.70L128.66-56.70L128.66-56.70Q133.09-63.10 138.81-66.54L138.81-66.54L138.81-66.54Q144.52-69.99 152.27-69.99L152.27-69.99L152.27-69.99Q162.48-69.99 167.59-63.59L167.59-63.59L167.59-63.59Q172.69-57.20 172.69-46.00L172.69-46.00L172.69-20.17ZM248.34-20.17L253.75-20.17L253.75 0L221.28 0L221.28-8.36L221.28-8.36Q218.57-4.43 213.71-1.35L213.71-1.35L213.71-1.35Q208.85 1.72 201.84 1.72L201.84 1.72L201.84 1.72Q192.62 1.72 187.33-3.20L187.33-3.20L187.33-3.20Q182.04-8.12 182.04-17.10L182.04-17.10L182.04-17.10Q182.04-40.34 221.52-40.96L221.52-40.96L221.52-40.96Q221.15-45.14 218.32-46.68L218.32-46.68L218.32-46.68Q215.50-48.22 208.73-48.22L208.73-48.22L208.73-48.22Q203.20-48.22 196.86-47.05L196.86-47.05L196.86-47.05Q190.53-45.88 185.24-43.91L185.24-43.91L185.24-66.54L185.24-66.54Q191.76-68.14 199.38-69.13L199.38-69.13L199.38-69.13Q207.01-70.11 214.27-70.11L214.27-70.11L214.27-70.11Q232.59-70.11 240.46-63.47L240.46-63.47L240.46-63.47Q248.34-56.83 248.34-42.93L248.34-42.93L248.34-20.17ZM221.28-28.04L221.28-28.78L221.28-28.78Q215.74-28.78 212.73-27.31L212.73-27.31L212.73-27.31Q209.72-25.83 209.72-22.39L209.72-22.39L209.72-22.39Q209.72-20.29 211.01-19.00L211.01-19.00L211.01-19.00Q212.30-17.71 214.63-17.71L214.63-17.71L214.63-17.71Q217.83-17.71 219.56-20.42L219.56-20.42L219.56-20.42Q221.28-23.12 221.28-28.04L221.28-28.04ZM293.72 29.03L293.72 29.03Q284.87 29.03 276.81 27.80L276.81 27.80L276.81 27.80Q268.75 26.57 264.33 24.97L264.33 24.97L264.33 4.80L264.33 4.80Q277.37 7.13 287.70 7.13L287.70 7.13L287.70 7.13Q294.71 7.13 297.84 4.98L297.84 4.98L297.84 4.98Q300.98 2.83 300.98-3.08L300.98-3.08L300.98-8.36L300.98-8.36Q297.91-4.43 293.05-1.35L293.05-1.35L293.05-1.35Q288.19 1.72 281.92 1.72L281.92 1.72L281.92 1.72Q269.37 1.72 263.04-7.63L263.04-7.63L263.04-7.63Q256.70-16.97 256.70-34.19L256.70-34.19L256.70-34.19Q256.70-51.41 263.04-60.76L263.04-60.76L263.04-60.76Q269.37-70.11 281.92-70.11L281.92-70.11L281.92-70.11Q288.19-70.11 293.05-67.03L293.05-67.03L293.05-67.03Q297.91-63.96 300.98-60.02L300.98-60.02L300.98-68.39L334.68-68.39L334.68-48.22L329.27-48.22L329.27-4.92L329.27-4.92Q329.27 12.91 320.42 20.97L320.42 20.97L320.42 20.97Q311.56 29.03 293.72 29.03L293.72 29.03ZM293.85-20.17L293.85-20.17Q297.41-20.17 299.20-22.08L299.20-22.08L299.20-22.08Q300.98-23.98 300.98-28.04L300.98-28.04L300.98-40.34L300.98-40.34Q300.98-44.40 299.20-46.31L299.20-46.31L299.20-46.31Q297.41-48.22 293.85-48.22L293.85-48.22L293.85-48.22Q290.28-48.22 288.50-46.31L288.50-46.31L288.50-46.31Q286.71-44.40 286.71-40.34L286.71-40.34L286.71-28.04L286.71-28.04Q286.71-23.98 288.50-22.08L288.50-22.08L288.50-22.08Q290.28-20.17 293.85-20.17L293.85-20.17ZM374.78 1.72L374.78 1.72Q357.31 1.72 347.48-7.44L347.48-7.44L347.48-7.44Q337.63-16.61 337.63-34.19L337.63-34.19L337.63-34.19Q337.63-51.78 347.48-60.95L347.48-60.95L347.48-60.95Q357.31-70.11 374.78-70.11L374.78-70.11L374.78-70.11Q392.12-70.11 399.81-61.07L399.81-61.07L399.81-61.07Q407.50-52.03 407.50-38.62L407.50-38.62L407.50-29.77L367.65-29.77L367.65-29.03L367.65-29.03Q367.65-24.48 370.35-22.32L370.35-22.32L370.35-22.32Q373.06-20.17 379.33-20.17L379.33-20.17L379.33-20.17Q386.84-20.17 393.60-21.28L393.60-21.28L393.60-21.28Q400.37-22.39 405.41-24.11L405.41-24.11L405.41-4.43L405.41-4.43Q401.10-2.09 392.80-0.18L392.80-0.18L392.80-0.18Q384.50 1.72 374.78 1.72L374.78 1.72ZM367.65-43.30L381.92-43.30L381.92-44.77L381.92-44.77Q381.92-48.95 380.13-50.80L380.13-50.80L380.13-50.80Q378.35-52.64 374.78-52.64L374.78-52.64L374.78-52.64Q371.21-52.64 369.43-50.74L369.43-50.74L369.43-50.74Q367.65-48.83 367.65-44.77L367.65-44.77L367.65-43.30ZM541.08-49.08L541.08-30.75L534.93-30.75L534.93-6.15L534.93-6.15Q529.51-3.08 519.12-0.68L519.12-0.68L519.12-0.68Q508.73 1.72 496.67 1.72L496.67 1.72L496.67 1.72Q473.67 1.72 460.63-10.39L460.63-10.39L460.63-10.39Q447.60-22.51 447.60-47.85L447.60-47.85L447.60-47.85Q447.60-73.80 460.57-85.61L460.57-85.61L460.57-85.61Q473.55-97.42 497.66-97.42L497.66-97.42L497.66-97.42Q509.34-97.42 519.55-94.96L519.55-94.96L519.55-94.96Q529.76-92.50 534.93-89.42L534.93-89.42L534.93-60.02L504.18-60.02L504.18-65.80L504.18-65.80Q504.18-70.97 502.02-73.25L502.02-73.25L502.02-73.25Q499.87-75.52 495.20-75.52L495.20-75.52L495.20-75.52Q490.52-75.52 488.37-73.25L488.37-73.25L488.37-73.25Q486.22-70.97 486.22-65.80L486.22-65.80L486.22-29.89L486.22-29.89Q486.22-24.72 488.37-22.45L488.37-22.45L488.37-22.45Q490.52-20.17 495.20-20.17L495.20-20.17L495.20-20.17Q499.87-20.17 502.02-22.45L502.02-22.45L502.02-22.45Q504.18-24.72 504.18-29.89L504.18-29.89L504.18-30.75L497.53-30.75L497.53-49.08L541.08-49.08ZM610.57-20.17L615.98-20.17L615.98 0L583.51 0L583.51-8.36L583.51-8.36Q580.81-4.43 575.95-1.35L575.95-1.35L575.95-1.35Q571.09 1.72 564.08 1.72L564.08 1.72L564.08 1.72Q554.85 1.72 549.56-3.20L549.56-3.20L549.56-3.20Q544.28-8.12 544.28-17.10L544.28-17.10L544.28-17.10Q544.28-40.34 583.76-40.96L583.76-40.96L583.76-40.96Q583.39-45.14 580.56-46.68L580.56-46.68L580.56-46.68Q577.73-48.22 570.97-48.22L570.97-48.22L570.97-48.22Q565.43-48.22 559.10-47.05L559.10-47.05L559.10-47.05Q552.76-45.88 547.47-43.91L547.47-43.91L547.47-66.54L547.47-66.54Q553.99-68.14 561.62-69.13L561.62-69.13L561.62-69.13Q569.24-70.11 576.50-70.11L576.50-70.11L576.50-70.11Q594.83-70.11 602.70-63.47L602.70-63.47L602.70-63.47Q610.57-56.83 610.57-42.93L610.57-42.93L610.57-20.17ZM583.51-28.04L583.51-28.78L583.51-28.78Q577.98-28.78 574.96-27.31L574.96-27.31L574.96-27.31Q571.95-25.83 571.95-22.39L571.95-22.39L571.95-22.39Q571.95-20.29 573.24-19.00L573.24-19.00L573.24-19.00Q574.53-17.71 576.87-17.71L576.87-17.71L576.87-17.71Q580.07-17.71 581.79-20.42L581.79-20.42L581.79-20.42Q583.51-23.12 583.51-28.04L583.51-28.04ZM659.03 0.12L619.92 0.12L619.92-20.17L625.33-20.17L625.33-75.52L619.92-75.52L619.92-95.69L653.62-95.69L653.62-20.17L659.03-20.17L659.03 0.12ZM702.08 0.12L662.97 0.12L662.97-20.17L668.38-20.17L668.38-75.52L662.97-75.52L662.97-95.69L696.67-95.69L696.67-20.17L702.08-20.17L702.08 0.12ZM742.67 1.72L742.67 1.72Q725.21 1.72 715.37-7.44L715.37-7.44L715.37-7.44Q705.53-16.61 705.53-34.19L705.53-34.19L705.53-34.19Q705.53-51.78 715.37-60.95L715.37-60.95L715.37-60.95Q725.21-70.11 742.67-70.11L742.67-70.11L742.67-70.11Q760.02-70.11 767.70-61.07L767.70-61.07L767.70-61.07Q775.39-52.03 775.39-38.62L775.39-38.62L775.39-29.77L735.54-29.77L735.54-29.03L735.54-29.03Q735.54-24.48 738.25-22.32L738.25-22.32L738.25-22.32Q740.95-20.17 747.22-20.17L747.22-20.17L747.22-20.17Q754.73-20.17 761.49-21.28L761.49-21.28L761.49-21.28Q768.26-22.39 773.30-24.11L773.30-24.11L773.30-4.43L773.30-4.43Q769.00-2.09 760.69-0.18L760.69-0.18L760.69-0.18Q752.39 1.72 742.67 1.72L742.67 1.72ZM735.54-43.30L749.81-43.30L749.81-44.77L749.81-44.77Q749.81-48.95 748.02-50.80L748.02-50.80L748.02-50.80Q746.24-52.64 742.67-52.64L742.67-52.64L742.67-52.64Q739.11-52.64 737.32-50.74L737.32-50.74L737.32-50.74Q735.54-48.83 735.54-44.77L735.54-44.77L735.54-43.30ZM831.60-70.11L831.60-70.11Q834.06-70.11 836.28-69.62L836.28-69.62L836.28-69.62Q838.49-69.13 839.97-68.39L839.97-68.39L839.97-44.89L839.97-44.89Q834.92-46.99 829.14-46.99L829.14-46.99L829.14-46.99Q821.39-46.99 817.21-42.93L817.21-42.93L817.21-42.93Q813.03-38.87 813.03-30.87L813.03-30.87L813.03-20.17L824.10-20.17L824.10 0L779.33 0L779.33-20.17L784.74-20.17L784.74-48.22L779.33-48.22L779.33-68.39L813.03-68.39L813.03-59.41L813.03-59.41Q816.47-64.58 820.90-67.34L820.90-67.34L820.90-67.34Q825.33-70.11 831.60-70.11L831.60-70.11ZM883.75-68.39L917.95-68.39L917.95-48.22L913.27-48.22L897.16-5.54L897.16-5.54Q891.13 10.58 883.39 18.63L883.39 18.63L883.39 18.63Q875.64 26.69 862.97 26.69L862.97 26.69L862.97 26.69Q857.80 26.69 852.51 25.65L852.51 25.65L852.51 25.65Q847.22 24.60 842.92 22.75L842.92 22.75L842.92 0.49L859.89 0.49L859.89 1.72L859.89 1.72Q859.89 4.80 863.09 4.80L863.09 4.80L863.09 4.80Q865.92 4.80 867.40 2.09L867.40 2.09L847.96-48.22L843.29-48.22L843.29-68.39L879.82-68.39L879.82-48.22L875.64-48.22L882.03-29.03L887.94-48.22L883.75-48.22L883.75-68.39Z" fill="#ccc"></path></g></g><style>text {
  font-size: 64px;
  font-family: Arial Black;
  dominant-baseline: central;
  text-anchor: middle;
}</style></svg>